# xmcd CD database file
#
# Track frame offsets:
#	150
#	16360
#	31325
#	49338
#	64713
#	78398
#	94702
#	109860
#	126661
#	141711
#	158000
#	173498
#	190349
#	204109
#	217821
#	235741
#	248021
#	262342
#	278246
#
# Disc length: 3951 seconds
#
# Revision: 1
# Processed by: cddbd v1.5.2PL0 Copyright (c) Steve Scherf et al.
# Submitted via: CDex 1.70beta2
#
DISCID=100f6d13
DTITLE=Various Artist - NU COUNTRY TRAXX 166
DYEAR=2013
DGENRE=Country
TTITLE0=Sure Be Cool If You Did - Blake Shelton
TTITLE1=Like Jesus Does - Eric Church
TTITLE2=Wagon Wheel - Darius Rucker
TTITLE3=Anywhere With You - Jake Owen
TTITLE4=Jump Right In - Zac Brown Band
TTITLE5=Hey Pretty Girl - Kip Moore
TTITLE6=Carolina - Parmalee
TTITLE7=Maybe Someday - Lonestar
TTITLE8=If You Want Some - Joel Crouse
TTITLE9=Redneck Crazy - Tyler Farr
TTITLE10=Tip It On Back - Dierks Bentley
TTITLE11=Tornado - Little Big Town
TTITLE12=He Loves To Make Me Cry - Krstin Kelly
TTITLE13=Blame It On Waylon - Jason Cassidy
TTITLE14=Let's Just Love Each Other Tonight - Vince Anthony
TTITLE15=Ho Hey - The Lumineers
TTITLE16=Hit N Run - Jess Moskaluke
TTITLE17=Get It Right - Kylee Epp
TTITLE18=Where Do I Go - Ryan Laird and Leah Daniels
EXTD=YEAR: 2013
EXTT0=
EXTT1=
EXTT2=
EXTT3=
EXTT4=
EXTT5=
EXTT6=
EXTT7=
EXTT8=
EXTT9=
EXTT10=
EXTT11=
EXTT12=
EXTT13=
EXTT14=
EXTT15=
EXTT16=
EXTT17=
EXTT18=
PLAYORDER=
